<?xml version="1.0" encoding="utf-8"?>
<!-- Generator: Adobe Illustrator 16.0.0, SVG Export Plug-In . SVG Version: 6.00 Build 0)  -->
<!DOCTYPE svg PUBLIC "-//W3C//DTD SVG 1.1//EN" "http://www.w3.org/Graphics/SVG/1.1/DTD/svg11.dtd">
<svg version="1.1" id="Layer_1" xmlns="http://www.w3.org/2000/svg" xmlns:xlink="http://www.w3.org/1999/xlink" x="0px" y="0px"
	 width="600px" height="400px" viewBox="0 0 600 400" enable-background="new 0 0 600 400" xml:space="preserve">
<g>
	<g>
		<path fill="none" d="M376.772,65.499c0.359-1.44,6.119-17.636,6.119-26.634c0-3.599-0.722-5.758-3.239-5.758l-1.799,0.36
			c-1.801,0.719-4.318,2.519-6.841,5.038c-3.958,3.6-8.278,9.718-12.236,17.276c-9.717,17.996-18.715,43.909-25.552,71.624
			c-3.602,14.396-6.841,29.152-9.36,43.548c6.48-11.517,15.117-26.633,23.395-42.47C358.776,106.529,369.934,83.495,376.772,65.499z
			"/>
	</g>
	<g>
		<path fill="none" d="M457.029,65.499c0.361-1.44,6.118-17.636,6.118-26.634c0-3.599-0.72-5.758-3.239-5.758l-1.798,0.36
			c-1.8,0.719-4.319,2.519-6.839,5.038c-3.96,3.6-8.278,9.718-12.237,17.276c-9.719,17.996-18.715,43.909-25.553,71.624
			c-3.6,14.396-6.84,29.152-9.359,43.548c6.48-11.517,15.116-26.633,23.394-42.47C439.034,106.529,450.191,83.495,457.029,65.499z"
			/>
	</g>
	<g>
		<path fill="none" d="M79.123,283.604c-18.356,14.396-30.953,28.073-39.231,40.311v0.36c-7.917,12.237-11.157,23.393-11.157,32.393
			c0,5.396,1.08,10.076,3.239,14.035c3.599,6.479,9.717,11.157,17.635,13.678c3.959,1.08,8.278,1.439,12.958,1.439
			c4.319,0,8.998-0.359,13.677-1.439l6.838-2.16c33.472-11.518,73.422-50.028,97.177-129.568c2.52-8.999,5.398-18.715,7.918-28.794
			c-12.597,5.039-24.115,10.079-34.912,15.118C122.312,254.092,97.837,269.208,79.123,283.604z"/>
	</g>
	<g>
		<path fill="none" d="M539.085,192.548c0.358-0.72,0.719-1.799,1.079-2.519c-2.16,1.799-5.038,5.038-8.998,11.156v0.36
			C535.126,199.026,537.646,195.787,539.085,192.548z"/>
	</g>
	<g>
		<path fill="#232323" d="M203.152,210.105c4.318-20.154,7.917-41.749,10.438-62.623c1.44-14.757,2.519-29.514,2.519-43.19
			c0-14.756-1.079-28.433-3.239-41.03c-6.479-34.192-21.595-51.468-40.311-56.866c-3.959-1.08-7.918-1.44-12.236-1.44
			c-12.958,0-26.994,4.319-40.671,12.237C101.656,27.271,83.3,42.748,67.824,61.463l-8.278,10.078
			c-23.394,30.953-39.59,67.664-39.59,100.416c0,14.396,3.239,28.072,10.078,39.949l1.08,1.08c1.44,0.72,2.52,1.44,3.959,1.44
			c1.081,0,2.16-0.36,3.599-0.721l1.439-1.08c1.08-0.72,1.44-1.439,1.44-2.52l-0.36-1.8l-1.08-2.158l-2.16-2.52
			c-5.397-10.077-7.917-21.594-7.917-33.831c0-7.199,1.08-14.397,2.52-21.595c4.678-24.834,16.916-50.388,32.751-72.703l7.558-9.358
			c10.078-11.517,20.516-21.954,31.313-30.232c14.037-10.438,28.793-17.636,42.11-19.795c3.239-0.72,6.479-1.08,9.718-1.08
			c4.679,0,8.998,0.72,12.956,2.16c6.839,2.52,13.317,6.838,18.356,14.037c6.118,8.277,10.797,20.155,13.677,35.631
			c2.159,12.237,3.239,25.554,3.239,39.95c0,13.317-1.08,27.713-2.519,42.11c-2.52,22.315-6.479,44.99-11.518,66.223
			c-14.038,5.759-27.354,11.518-39.59,17.277c-31.673,15.115-56.867,30.591-75.942,45.707
			c-18.716,14.758-31.672,28.794-40.311,41.751l-0.36,0.719l-1.08,1.441c-8.278,13.316-11.877,24.833-11.877,34.911
			c0.36,14.756,7.919,25.913,20.155,31.312c1.8,1.08,3.599,1.801,5.399,2.52l2.879,0.721c3.958,1.079,8.278,1.439,12.957,1.439
			c5.398,0,11.157-0.72,16.916-2.16l7.198-2.16c36.711-12.235,80.98-53.266,105.455-136.406c3.239-10.438,6.119-21.595,8.999-33.472
			c10.873-4.254,22.379-8.508,34.493-12.66v-7.5C224.122,202.423,213.234,206.265,203.152,210.105z M180.477,252.576
			c-23.754,79.54-63.705,118.052-97.177,129.567l-6.838,2.16c-4.678,1.079-9.357,1.439-13.677,1.439
			c-4.678,0-8.998-0.36-12.957-1.439c-7.918-2.52-14.036-7.198-17.635-13.676c-2.16-3.96-3.239-8.638-3.239-14.037
			c0-8.998,3.239-20.155,11.156-32.393v-0.36c8.278-12.236,20.875-25.914,39.231-40.311c18.716-14.396,43.189-29.511,74.142-44.629
			c10.797-5.038,22.315-10.077,34.912-15.116C185.875,233.86,182.996,243.577,180.477,252.576z"/>
	</g>
	<g>
		<path fill="#232323" d="M281.354,202.488c-1.654,0-3.148-0.158-4.499-0.428v7.272c1.39,0.227,2.881,0.354,4.499,0.354
			c6.939,0,15.816-1.937,27.6-7.262c0.339-2.632,0.7-5.308,1.086-8.021C297.009,200.442,287.988,202.488,281.354,202.488z"/>
	</g>
	<g>
		<path fill="#232323" d="M370.295,221.699c-5.4,7.918-36.712,54.707-48.589,54.707l-1.799-0.72
			c-2.88-2.519-4.681-10.077-4.681-24.475c0-7.917,0.36-17.635,1.44-29.513c0.72-9.717,2.16-20.875,3.96-32.39
			c7.196-10.798,20.155-33.112,33.112-57.586c11.517-21.955,22.675-45.708,29.512-63.705c4.679-12.237,6.479-21.955,6.479-28.793
			c0-2.52-0.361-5.039-0.719-6.838c-1.44-3.599-3.602-6.118-6.119-7.199c-1.439-0.359-2.879-0.72-4.319-0.72s-3.239,0.36-5.037,1.08
			c-7.199,3.239-15.839,11.877-23.755,26.633c-10.438,18.715-19.077,44.99-26.275,73.063c-6.051,23.195-10.686,47.446-13.788,69.296
			c-0.405,2.901-0.53,3.814-1.085,8.021c-0.825,6.43-1.509,12.604-2.044,18.418c-0.722,10.438-1.44,19.077-1.44,26.634
			c0,26.634,5.4,37.431,13.68,38.149h1.08c16.556,0,46.788-46.786,56.507-60.104c3.869-5.501,7.744-11.112,11.681-16.582
			c0.546-4.694,1.173-9.557,1.881-14.542C383.604,202.76,376.95,212.383,370.295,221.699z M333.225,127.405
			c6.837-27.714,15.835-53.628,25.552-71.624c3.958-7.559,8.278-13.677,12.236-17.276c2.522-2.519,5.04-4.319,6.841-5.038
			l1.799-0.36c2.518,0,3.239,2.16,3.239,5.758c0,8.999-5.76,25.194-6.119,26.634c-6.839,17.996-17.996,41.03-29.514,62.984
			c-8.277,15.836-16.914,30.953-23.395,42.47C326.384,156.557,329.623,141.801,333.225,127.405z"/>
	</g>
	<g>
		<path fill="#232323" d="M450.551,221.699c-5.397,7.918-36.711,54.707-48.588,54.707l-1.8-0.72
			c-2.879-2.519-4.679-10.077-4.679-24.475c0-7.917,0.36-17.635,1.439-29.513c0.721-9.717,2.16-20.875,3.96-32.39
			c7.197-10.798,20.154-33.112,33.111-57.586c11.519-21.955,22.675-45.708,29.514-63.705c4.678-12.237,6.478-21.955,6.478-28.793
			c0-2.52-0.359-5.039-0.719-6.838c-1.439-3.599-3.599-6.118-6.12-7.199c-1.439-0.359-2.879-0.72-4.318-0.72
			c-1.438,0-3.24,0.36-5.038,1.08c-7.198,3.239-15.836,11.877-23.755,26.633c-10.438,18.715-19.075,44.99-26.274,73.063
			c-6.049,23.193-10.686,47.442-13.786,69.291c0.52-0.671,1.038-1.335,1.553-1.987c0.721-1.08,1.44-1.439,2.521-1.439
			c0.72,0,1.8,0.359,2.519,0.72c0.721,0.72,1.44,1.8,1.44,2.879l-0.72,2.159c-3.123,3.905-6.178,8.017-9.193,12.211
			c-0.478,4.102-0.896,8.082-1.247,11.902c-0.721,10.438-1.44,19.077-1.44,26.634c0,26.634,5.399,37.431,13.677,38.149h1.079
			c16.557,0,46.79-46.786,56.507-60.104c3.255-4.625,6.511-9.327,9.803-13.961c0.63-4.726,1.477-9.919,2.576-15.625
			C463.04,203.947,456.797,212.956,450.551,221.699z M413.481,127.405c6.838-27.714,15.834-53.628,25.553-71.624
			c3.959-7.559,8.277-13.677,12.237-17.276c2.52-2.519,5.039-4.319,6.839-5.038l1.798-0.36c2.52,0,3.239,2.16,3.239,5.758
			c0,8.999-5.757,25.194-6.118,26.634c-6.838,17.996-17.995,41.03-29.514,62.984c-8.277,15.836-16.913,30.953-23.394,42.47
			C406.642,156.557,409.882,141.801,413.481,127.405z"/>
	</g>
	<g>
		<path fill="#232323" d="M398.008,194.707c0-1.079-0.72-2.159-1.44-2.879c-0.719-0.36-1.799-0.72-2.519-0.72
			c-1.08,0-1.8,0.359-2.521,1.439c-0.515,0.652-1.033,1.316-1.553,1.987c-0.708,4.985-1.335,9.848-1.881,14.542
			c3.016-4.194,6.07-8.306,9.193-12.211L398.008,194.707z"/>
	</g>
	<g>
		<path fill="#232323" d="M481.5,163.754c1.081,0,2.16-0.359,2.88-1.08c0.721-0.719,1.079-1.439,1.079-2.159l-0.358-1.439
			l0.358-0.359l0.359-1.44c0-1.44-0.718-2.88-2.158-3.24c-1.079-0.72-2.88-1.08-3.96-1.08c-1.08,0.36-2.16,0.72-2.878,1.8
			c-0.361,0.72-0.721,1.44-0.721,2.52v1.08c0.359,1.079,1.438,2.879,3.239,4.678C480.061,163.395,480.78,163.754,481.5,163.754z"/>
	</g>
	<g>
		<path fill="#232323" d="M521.09,197.586c1.718-2.455,3.339-4.618,4.872-6.528c-0.454,0.224-0.909,0.585-1.272,1.13l-4.678,6.119
			c-1.8,2.518-29.873,44.627-39.951,44.627c-1.44,0-2.521-1.079-3.238-3.239c-0.361-2.159-0.721-4.679-0.721-7.918
			c0-8.278,1.8-20.875,5.039-37.79c0.72-0.72,1.081-1.44,1.081-2.52l-0.361-1.799c0-1.08-0.36-2.16-1.08-3.239
			c-1.08-1.439-2.16-2.16-3.599-2.519l-1.44-0.36c-3.239,0-4.678,3.238-5.399,6.118c-0.466,2.206-0.894,4.336-1.293,6.404
			c0.918-1.203,1.831-2.38,2.738-3.525c0.719-1.08,1.439-1.439,2.519-1.439c0.72,0,1.8,0.359,2.52,0.72
			c0.72,0.72,1.439,1.8,1.439,2.879l-0.72,2.159c-3.771,4.716-7.444,9.73-11.072,14.832c-1.079,8.094-1.529,14.827-1.529,20.438
			c0,14.038,3.24,20.516,8.639,21.595h1.8c10.121,0,24.461-15.884,35.638-30.345c0.949-4.886,2.365-9.975,4.312-14.645
			C515.689,208.023,519.289,200.105,521.09,197.586z"/>
	</g>
	<g>
		<path fill="#232323" d="M478.265,194.707c0-1.079-0.72-2.159-1.439-2.879c-0.72-0.36-1.8-0.72-2.52-0.72
			c-1.079,0-1.8,0.359-2.519,1.439c-0.907,1.146-1.82,2.323-2.738,3.525c-1.1,5.706-1.946,10.899-2.576,15.625
			c3.628-5.102,7.301-10.116,11.072-14.832L478.265,194.707z"/>
	</g>
	<g>
		<path fill="#232323" d="M583.714,193.268c-0.721-0.72-1.439-1.08-2.16-1.08c-1.079,0-2.158,0.72-2.88,1.44
			c-16.555,22.313-29.513,35.989-39.23,43.908l-0.358,0.359c-5.759,3.96-9.718,6.118-12.597,6.118h-0.721
			c-1.44,0-2.52-0.719-3.238-1.798c-0.722-1.8-1.439-4.32-1.439-7.559c0-6.839,1.798-15.477,5.038-23.755
			c10.077-2.52,16.556-8.998,19.435-15.115c1.08-1.799,1.44-3.599,1.801-5.399c0,0,0.358-1.799,0.358-2.52
			c0-1.08,0-2.159-0.358-2.878c-0.721-3.24-2.52-5.399-5.759-5.399c-1.08,0-2.161,0.36-3.24,0.72
			c-3.058,0.834-7.195,4.26-12.402,10.747c0.445-0.22,0.891-0.31,1.248-0.31c0.718,0,1.439,0,2.159,0.719
			c1.079,0.72,1.8,1.8,1.8,2.88l-0.721,1.799l-4.319,6.478c-2.834,3.914-8.402,12.082-15.109,20.762
			c-0.809,4.151-1.282,8.158-1.447,11.63l0.36,3.599c0.719,5.038,2.518,8.998,5.757,11.878c2.16,1.438,4.68,2.52,7.559,2.52
			c1.8,0,3.959-0.36,6.119-1.081c3.238-1.438,7.558-3.598,12.598-7.198l2.158-1.799c10.077-8.277,23.395-22.675,40.311-44.987
			c0.359-0.72,0.72-1.081,0.72-1.8C585.153,195.067,584.434,193.988,583.714,193.268z M531.166,201.185
			c3.96-6.118,6.838-9.356,8.998-11.156c-0.36,0.72-0.721,1.799-1.079,2.519c-1.439,3.239-3.959,6.479-7.919,8.997V201.185z"/>
	</g>
	<g>
		<path fill="#232323" d="M530.448,196.147l0.721-1.799c0-1.08-0.721-2.16-1.8-2.88c-0.72-0.719-1.441-0.719-2.159-0.719
			c-0.357,0-0.803,0.089-1.248,0.31c-1.533,1.91-3.154,4.073-4.872,6.528c-1.801,2.519-5.4,10.437-5.759,11.156
			c-1.946,4.67-3.362,9.759-4.312,14.645c6.707-8.68,12.275-16.848,15.109-20.762L530.448,196.147z"/>
	</g>
	<g>
		<path fill="#232323" d="M243.685,196.466c-3.946,1.3-4.57,0.893-8.417,2.193v7.501c2.176-0.746,4.371-1.489,6.586-2.229
			C243.25,200.375,241.694,198.966,243.685,196.466z"/>
	</g>
	<g>
		<path fill-rule="evenodd" clip-rule="evenodd" fill="#232323" d="M260.521,188.386c3.107-3.067,6.064-5.829,9.765-7.525
			c3.421-1.568,7.041-2.535,10.406-0.013c3.418,2.562,3.893,6.337,3.288,10.239c-1.3,8.378-5.054,15.707-10.118,22.39
			c-4.859,6.41-9.844,12.725-14.776,19.079c-1.072,1.383-2.227,2.786-4.231,2.097c-1.896-0.65-2.677-2.176-2.067-4.077
			c0.525-1.634-0.635-1.836-1.564-2.24c-12.55-5.455-19.062-28.009-8.984-42.602c4.366-6.322,11.475-6.355,16.214-0.304
			C259.125,186.288,259.707,187.218,260.521,188.386z M243.907,203.343c-0.003-0.086-0.017,0.405,0.045,0.886
			c1.017,7.721,3.087,14.83,10.902,18.549c1.294,0.615,2.488,1.354,3.771-0.345c4.765-6.303,10.114-12.185,14.048-19.083
			c2.477-4.34,4.451-8.942,4.906-13.992c0.29-3.225-0.854-3.957-3.844-2.815c-2.557,0.977-4.617,2.694-6.57,4.521
			c-7.44,6.962-7.426,6.978-13.627-1.246c-2.313-3.068-4.395-2.997-6.427,0.391C244.804,194.054,243.878,198.304,243.907,203.343z"
			/>
	</g>
</g>
<g>
	<path fill-rule="evenodd" clip-rule="evenodd" fill="#232323" d="M431.409,296.633c2.012,0.244,3.24,1.368,3.072,3.381
		c-0.202,2.452-2.073,3.075-4.21,3.092c-8.032,0.065-16.066,0.023-24.097,0.188c-69.994,1.444-138.772,11.091-206.027,30.839
		c-8.046,2.364-16.041,4.906-24.062,7.359c-1.502,0.46-2.996,1.1-4.492-0.112c-0.956-0.775-1.325-1.766-1.166-2.903
		c0.256-1.825,1.592-2.532,3.21-3.063c12.945-4.232,25.997-8.098,39.136-11.674c58.564-15.938,118.272-24.277,178.854-26.629
		c12.519-0.485,25.062-0.438,37.593-0.624C429.949,296.476,430.681,296.582,431.409,296.633z"/>
</g>
<g>
	<path fill="#232323" d="M455.787,274.548c-2.197,6.153-4.242,12.523-6.135,19.113c0.666-0.59,1.456-1.092,2.369-1.506
		c0.913-0.413,1.566-0.67,1.958-0.767c0.39-0.098,0.731-0.17,1.021-0.215c0.289-0.046,0.675-0.044,1.154,0.005
		c0.48,0.048,0.915,0.174,1.3,0.378c0.938,0.493,1.562,1.361,1.872,2.609c0.312,1.249,0.316,2.703,0.015,4.36
		c-0.305,1.657-0.848,3.38-1.631,5.167s-1.702,3.496-2.752,5.129c-1.053,1.633-2.267,3.054-3.645,4.263
		c-1.379,1.211-2.75,1.986-4.115,2.326c-0.632,0.158-1.463-0.068-2.49-0.68c-1.026-0.609-1.707-1.58-2.038-2.911
		c-0.333-1.332-0.272-3.539,0.178-6.622c0.453-3.084,1.139-6.274,2.057-9.57c0.919-3.297,1.89-6.53,2.91-9.704
		c1.023-3.172,1.913-5.781,2.677-7.829c0.763-2.045,1.245-3.235,1.444-3.568c0.2-0.333,0.631-0.68,1.292-1.038
		c0.662-0.359,1.252-0.6,1.771-0.721c0.519-0.12,0.835,0.053,0.951,0.52C456.024,273.586,455.97,274.006,455.787,274.548z
		 M455.021,300.199c0.384-1.369,0.453-2.544,0.209-3.525s-0.68-1.396-1.304-1.241c-0.625,0.156-1.514,0.666-2.669,1.528
		c-1.155,0.863-1.823,1.316-2.008,1.362c-0.184,0.047-0.461-0.044-0.837-0.268c-1.789,6.651-2.481,10.785-2.078,12.399
		c0.187,0.749,0.521,1.063,1.004,0.942c1.148-0.285,2.564-1.66,4.25-4.122C453.273,304.813,454.419,302.455,455.021,300.199z"/>
	<path fill="#232323" d="M467.945,294.908c2.816-5.44,5.605-8.506,8.368-9.194c0.684-0.171,1.296-0.107,1.84,0.19
		c0.542,0.299,0.895,0.771,1.056,1.421c0.162,0.648-0.028,1.851-0.572,3.604c-0.545,1.753-1.076,3.253-1.598,4.496
		c-0.284,0.637-0.688,1.02-1.212,1.149c-0.524,0.132-0.979,0.042-1.366-0.268c-0.387-0.312-0.645-0.725-0.774-1.24
		c-0.285-1.148,0.006-2.601,0.877-4.354l-0.063-0.039c-0.536,0.187-1.627,1.609-3.272,4.265c-1.646,2.656-3.021,5.01-4.128,7.063
		c-1.104,2.052-2.249,4.5-3.433,7.34c-0.338,0.846-0.686,1.311-1.044,1.4c-0.357,0.09-0.859,0.096-1.507,0.019
		c-0.646-0.078-1.045-0.15-1.195-0.219c-0.149-0.068-0.255-0.22-0.312-0.452c-0.059-0.233-0.06-0.521-0.002-0.861
		c0.056-0.342,0.192-0.84,0.408-1.496c0.217-0.655,0.529-1.705,0.938-3.151c0.408-1.445,1.06-3.641,1.952-6.586
		c0.892-2.944,1.421-4.722,1.588-5.329c0.359-1.256,0.676-2.185,0.951-2.783c0.512-1.137,1.658-1.926,3.44-2.371
		c0.399-0.099,0.661,0.101,0.785,0.602c0.196,0.781-0.161,2.437-1.069,4.961L467.945,294.908z"/>
	<path fill="#232323" d="M491.837,297.437c0.124,0.501,0.163,0.871,0.117,1.114c-0.401,1.865-1.363,3.534-2.89,5.002
		c-1.525,1.469-2.945,2.365-4.262,2.695c-1.315,0.327-2.557,0.169-3.726-0.479c-1.168-0.646-1.868-1.426-2.096-2.341
		s-0.103-2.362,0.377-4.338c0.48-1.977,0.992-3.82,1.538-5.529c0.547-1.71,0.805-2.626,0.773-2.752
		c-0.029-0.125-0.262-0.328-0.696-0.609c-0.432-0.28-0.671-0.509-0.713-0.684c-0.045-0.174,0.188-0.719,0.693-1.631
		c0.507-0.914,1.164-1.855,1.974-2.826c0.811-0.972,1.478-1.522,2.002-1.653c0.523-0.131,1.052-0.015,1.585,0.346
		c0.533,0.364,0.846,0.737,0.941,1.119c0.096,0.383-0.987,4.481-3.247,12.294c-0.023,0.111-0.107,0.367-0.245,0.764
		c-0.141,0.397-0.245,0.725-0.313,0.98c-0.069,0.256-0.147,0.563-0.235,0.92c-0.167,0.749-0.195,1.348-0.082,1.799
		c0.142,0.565,0.595,0.753,1.361,0.563c0.765-0.192,1.496-0.651,2.188-1.382c0.693-0.729,1.26-1.485,1.701-2.268
		c1.146-2.071,1.828-3.134,2.045-3.189C491.06,295.244,491.464,295.939,491.837,297.437z M490.446,274.631
		c0.235,0.948,0.032,2.012-0.612,3.188c-0.642,1.178-1.441,1.885-2.399,2.124c-0.957,0.239-1.562-0.142-1.81-1.14
		c-0.249-1-0.066-2.057,0.548-3.174s1.428-1.801,2.444-2.056c0.45-0.111,0.838-0.076,1.168,0.107
		C490.114,273.864,490.334,274.181,490.446,274.631z"/>
	<path fill="#232323" d="M514.242,258.38c0.233,0.153,0.375,0.334,0.426,0.543c0.053,0.207-0.014,0.632-0.2,1.271
		c-0.184,0.639-0.627,2.04-1.324,4.202c-0.699,2.163-1.24,3.859-1.623,5.086c-2.247,7.085-3.915,13.016-5.004,17.798
		c-1.09,4.781-1.523,7.61-1.304,8.494l0.05,0.199c0.17,0.684,0.506,0.962,1.006,0.837c0.498-0.124,1.045-0.507,1.635-1.15
		c0.59-0.643,1.086-1.297,1.486-1.962c0.4-0.666,0.799-1.353,1.197-2.062c0.397-0.709,0.642-1.129,0.733-1.259
		c0.092-0.129,0.229-0.216,0.412-0.261c0.282-0.071,0.511,0.063,0.684,0.399c0.173,0.337,0.338,0.826,0.499,1.468
		c0.159,0.64,0.214,1.072,0.164,1.297c-0.25,1.054-1.028,2.454-2.333,4.203c-1.306,1.749-2.691,2.807-4.156,3.171
		c-2.498,0.623-4.009-0.123-4.536-2.237c-0.328-1.313-0.26-3.161,0.21-5.542c-0.915,2.085-1.915,3.916-3.007,5.497
		c-2.031,2.911-4.005,4.606-5.92,5.083c-1.064,0.266-1.945,0.088-2.64-0.535c-0.694-0.621-1.216-1.638-1.568-3.044
		c-0.35-1.407-0.222-3.228,0.387-5.467c0.609-2.238,1.539-4.348,2.786-6.331c1.247-1.981,2.737-3.748,4.472-5.305
		c1.733-1.556,3.44-2.543,5.122-2.961c0.533-0.134,1.238,0.035,2.115,0.506c0.293-0.886,0.802-2.64,1.526-5.261
		c2.364-7.893,4.016-12.76,4.953-14.602c0.471-1.09,1.447-1.82,2.928-2.189C513.735,258.188,514.01,258.225,514.242,258.38z
		 M503.074,283.046c-2.266,1.131-4.217,2.802-5.858,5.015c-1.641,2.213-2.745,4.376-3.315,6.489
		c-0.568,2.113-0.785,3.444-0.647,3.993c0.136,0.55,0.32,0.796,0.555,0.737c0.998-0.249,2.914-3.096,5.748-8.541
		C500.97,288.053,502.145,285.488,503.074,283.046z"/>
	<path fill="#232323" d="M526.761,274.539c1.264-0.315,2.005-0.039,2.22,0.825c0.116,0.468,0.093,0.836-0.069,1.105
		c-0.164,0.271-0.444,1.105-0.846,2.506c-0.404,1.4-0.795,3.16-1.178,5.28c-0.383,2.119-0.53,3.884-0.443,5.295
		c-0.008,0.18,0.025,0.418,0.1,0.719c0.229,0.914,0.592,1.311,1.092,1.187c0.499-0.126,1.031-0.51,1.594-1.154
		c0.564-0.646,1.046-1.305,1.444-1.979c0.398-0.673,0.78-1.357,1.147-2.048c0.365-0.694,0.589-1.095,0.668-1.203
		c0.079-0.107,0.218-0.188,0.418-0.236c0.316-0.078,0.567,0.113,0.755,0.58c0.187,0.467,0.345,0.958,0.474,1.474
		c0.129,0.518,0.169,0.887,0.119,1.112c-0.248,1.068-1.025,2.475-2.333,4.215c-1.308,1.739-2.631,2.778-3.971,3.111
		c-1.34,0.335-2.428,0.172-3.264-0.485c-0.837-0.658-1.377-1.482-1.625-2.473c-0.246-0.99-0.297-1.901-0.149-2.733
		c-0.935,2.142-2.14,4.061-3.618,5.754c-1.479,1.696-2.784,2.685-3.916,2.966c-1.132,0.283-2.141,0.171-3.026-0.331
		c-1.128-0.622-1.879-1.685-2.255-3.191s-0.416-3.104-0.122-4.797c0.294-1.691,0.835-3.303,1.619-4.833
		c0.787-1.53,1.708-2.976,2.766-4.336c2.224-2.854,4.5-4.57,6.831-5.151c0.898-0.225,1.668-0.258,2.309-0.1
		c0.641,0.159,1.093,0.444,1.354,0.856c0.25-0.698,0.493-1.162,0.728-1.389C525.818,274.858,526.208,274.678,526.761,274.539z
		 M524.13,278.141c-2.848,0.71-5.399,3.025-7.657,6.948c-0.799,1.4-1.455,3.005-1.969,4.814c-0.513,1.806-0.696,3.001-0.551,3.584
		s0.384,0.834,0.716,0.751c0.467-0.116,1.536-1.36,3.208-3.731c1.673-2.371,2.75-4.076,3.233-5.116
		C521.636,284.234,522.642,281.817,524.13,278.141z"/>
	<path fill="#232323" d="M546.905,250.618c0.726,0.324,1.206,0.952,1.438,1.884c0.233,0.933,0.082,2.521-0.455,4.768
		c-0.536,2.247-1.27,4.588-2.201,7.021c-0.932,2.435-2.021,5.045-3.272,7.831c-1.975,4.419-3.928,8.432-5.855,12.043
		c0.032,0.205,0.056,0.593,0.064,1.164c0.012,0.573,0.084,1.133,0.222,1.683c0.137,0.549,0.515,0.98,1.132,1.295
		c0.618,0.314,1.302,0.379,2.05,0.192c0.749-0.187,1.485-0.654,2.211-1.4c0.724-0.747,1.321-1.521,1.793-2.329
		c1.236-2.13,2.055-3.246,2.455-3.346c0.398-0.098,0.75,0.459,1.054,1.674l0.124,0.5c0.162,0.648,0.164,1.153,0.006,1.511
		c-0.972,2.063-2.227,3.732-3.764,5.009c-1.539,1.277-3.092,2.111-4.654,2.5c-1.565,0.391-2.875,0.209-3.929-0.544
		c-1.056-0.754-1.79-1.964-2.205-3.629c-0.809-3.245-0.891-7.279-0.245-12.099c0.646-4.821,1.675-9.041,3.088-12.665
		c3.175-8.183,6.062-12.599,8.658-13.246C545.416,250.235,546.18,250.296,546.905,250.618z M544.528,254.858
		c-0.062-0.248-0.177-0.353-0.343-0.313c-0.582,0.146-1.699,2.191-3.35,6.14c-1.649,3.947-2.782,7.05-3.396,9.307
		c-0.611,2.258-1.035,5.008-1.271,8.248c1.383-2.82,3.193-7.13,5.435-12.933C543.844,259.508,544.819,256.024,544.528,254.858z"/>
</g>
</svg>
